<?xml version="1.0" encoding="utf-8"?>
<!-- Generator: Adobe Illustrator 19.2.1, SVG Export Plug-In . SVG Version: 6.00 Build 0)  -->
<svg version="1.1" id="Layer_1" xmlns="http://www.w3.org/2000/svg" xmlns:xlink="http://www.w3.org/1999/xlink" x="0px" y="0px"
	 viewBox="0 0 160 66" style="enable-background:new 0 0 160 66;" xml:space="preserve">
<style type="text/css">
	.st0{fill:#005646;stroke:#000033;stroke-width:4;stroke-linecap:round;stroke-linejoin:round;stroke-miterlimit:10;}
	.st1{fill:#005646;stroke:#003333;stroke-width:2;stroke-linecap:round;stroke-linejoin:round;stroke-miterlimit:10;}
	.st2{fill:url(#SVGID_1_);}
	.st3{fill:url(#SVGID_2_);}
	.st4{fill:url(#SVGID_3_);}
	.st5{fill:url(#SVGID_4_);}
	.st6{fill:url(#SVGID_5_);}
	.st7{fill:url(#SVGID_6_);}
	.st8{fill:url(#SVGID_7_);}
	.st9{fill:url(#SVGID_8_);}
	.st10{fill:url(#SVGID_9_);}
	.st11{fill:url(#SVGID_10_);}
	.st12{fill:url(#SVGID_11_);}
	.st13{fill:url(#SVGID_12_);}
	.st14{fill:url(#SVGID_13_);}
	.st15{fill:url(#SVGID_14_);}
	.st16{fill:url(#SVGID_15_);}
	.st17{fill:url(#SVGID_16_);}
	.st18{fill:url(#SVGID_17_);}
	.st19{fill:url(#SVGID_18_);}
	.st20{fill:url(#SVGID_19_);}
</style>
<g id="Layer_9">
	<path class="st0" d="M157.4,44.3c-0.4,0-0.9,0.3-1,0.6s0.1,0.6,0.6,0.6c0.4,0,0.9-0.3,1-0.6S157.8,44.3,157.4,44.3z"/>
	<path class="st0" d="M154.2,40.8c-1.4,0-3,1.2-3.4,2.7c-0.5,1.5,0.5,2.7,1.8,2.7s3-1.2,3.4-2.7C156.5,41.8,155.6,40.8,154.2,40.8z
		 M154.6,43c-0.2,0.4-0.6,0.8-1,0.8s-0.9-0.4-0.7-1c0.2-0.5,0.8-1,1.3-1S154.9,42.3,154.6,43z"/>
	<path class="st0" d="M151.4,41c-0.7,0-1.6-0.2-1.6-0.8V40c0.2-0.8-0.9-0.8-1.1-0.8c-1.1,0.2-2.1,0.8-2.5,1.9s0.2,2.5,1.6,2.5
		c1.6,0.2,3.4-1,3.4-1c0.7-0.4,1.6,0.4,1.1,1c-1.1,2.5-3.7,3.3-5.9,3.3c-2.7,0-4.8-2.7-4.1-5.6c1.4-4.1,5.3-4.4,6.6-4.4
		c1.8,0,3.2,1,3.7,2.3l0,0L151.4,41z"/>
	<path class="st0" d="M91.9,28.3c-3.6,0-4.3-1.7-2.8-6.6l1.7-5.2c0.2-0.9-0.2-1.8-1.1-1.8c-1,0-1.7,0.7-2.1,1.8l-2.3,7.4
		c-0.1,0.3-0.4,0.5-0.7,0.5h-4.3c-0.5,0-0.9-0.5-0.7-0.9l6-15.7l-1-0.2l1.2-3.3c0.1-0.3,0.4-0.5,0.7-0.5h2.9c1.5,0,2.7,1.4,2.1,2.9
		l-1.7,5c0.6-0.4,1-0.4,1.5-0.5c2.3-0.4,3.8,0,4.4,1.3c0.6,1.4-0.4,5.4-1,7.7l-0.4,2.1c-0.2,1,0.5,2,1.6,2.1l2.6,0.4l-0.3,0.9
		c-0.5,1.4-2.2,2.6-3.8,2.6C94.4,28.3,91.9,28.3,91.9,28.3z"/>
	<path class="st0" d="M66.8,30.2h-5c-0.5,0-0.8-0.4-0.7-0.9L68.3,8l-0.8-0.4l0.8-3.3C68.4,4,68.7,3.8,69,3.8h5.8
		c0.5,0,0.8,0.4,0.7,0.8l-8,25C67.4,30,67.1,30.2,66.8,30.2z"/>
	<path class="st0" d="M76.1,6.2c0.1-0.3,0.4-0.6,0.8-0.6h2.4c1.1,0,2.5,0.4,1.9,2.9l-1.4,4l2.2,0.1l-0.4,1.6
		c-0.2,0.7-0.6,1.4-1.9,1.4H79l-2.9,8.1c-0.2,0.7,0.4,1.4,1.1,1.4H78l-1.7,5h-0.8c-3.8,0-5.7-2.7-4.8-5.9l4.8-14L75,10.1L76.1,6.2z"
		/>
	<path class="st0" d="M62.5,13h-1.6l-0.4,0.9c-0.8-0.6-1.8-0.9-3.2-0.9c-3.8,0-8.1,3.2-9.3,7.2s1,7.2,5,7.2c0.8,0,1.6-0.2,2.2-0.4
		l0,0h5.2l3.8-11.5C65.1,14.5,64.1,13.1,62.5,13z M58.7,18.8c-0.4,1.3-1.8,2.6-3.2,2.6s-2.2-1.1-1.8-2.5s1.8-2.5,3.2-2.5
		C58.3,16.4,59.1,17.5,58.7,18.8z"/>
	<path class="st0" d="M43.9,18.1c0.4-1.1-0.8-2.1-1.8-2.1c-1.8,0-3,1.1-3.6,3s0.4,3.8,2.4,3.8c4.8,0,7.7-3.2,7.7-3.2
		c1-0.6,2.2,0.6,1.8,1.5c-1.8,3.8-5,6.4-11.5,6.6c-4,0.2-7.1-4.2-5.8-8.3c2-6.2,7.7-6.6,9.5-6.6c2.6,0,4.2,0.4,5.2,1.7
		c0.8,1.3,0.6,2.5,0.2,3.8c-0.4,1.1-1.4,1.9-2.6,2.5C45,21,44,21.6,43,21.7s-2.4,0.2-3.2-0.2c-1.4-1.5,1-5.3,3.8-3L43.9,18.1z"/>
	<path class="st0" d="M36.3,13.5c-1.5,1-2.9,2-3.9,4.5s-0.3,5.6-0.3,5.6l-0.9,2.9c-3.6,10.9-10.7,10.9-14.7,9.1
		c-4-1.6-4.4-6.1-3.8-8.1c0.6-2,2.3-4.8,5.4-5c0.8,0,1.9-0.2,2.9,0.4c1.3,0.7,2.3,2.3,0.8,4.7l-0.4,0.2c-0.8,0.9,0,1.4,0.6,1.4
		c1.5,0,1.9-1.8,2.3-3.2l5.4-13.4h-0.6c-2.3,0-3.8-2.1-3.3-4.1l1.5-4.7h14.4l-3,8.4C38.7,12.3,37.8,12.5,36.3,13.5z"/>
	<path class="st0" d="M87.7,29.1c-1.4-0.6-1.7-2.3-1.3-3.5l0,0c0.1-0.2-0.1-0.4-0.3-0.4h-6.7c-0.1,0-0.3,0.1-0.3,0.2l-0.2,0.4
		c-1.5,3.6,1.5,6.3,5,7.5c0,0,2.9,0.8,7.5,0.8c5.6,0,7.9-0.6,7.9-0.6c1.4-0.4,4.3-1.3,5.2-4l2.6-7.5l1.9-5.5
		c0.1-0.2-0.1-0.4-0.3-0.4h-3.3c-0.2,0-0.3,0.1-0.3,0.2c-0.5,1.2-0.7,3.2-2,3.2s-2.1-1.1-1.7-2.3l0.1-0.2c1.4-1.8,1.6-5.1-0.4-6.2
		c-1.1-0.6-2.6-0.7-4-0.3c-0.2,0.1-0.3,0.2-0.2,0.4l0.4,2.2c1.3,0,0,0.9-1,3.6s0.8,6,3.8,6.6L99,26.5c-0.4,1-1.2,2.4-3.1,2.7
		C93.8,29.6,89.1,29.6,87.7,29.1z"/>
	<path class="st0" d="M41,43.3c-0.3,0-0.6,0.2-0.8,0.6l-3.6,9.5c-1.3,4.1-5.4,6.8-9.8,6.8h-2.6c-0.6,0-2.5-0.6-2.3-1.1l2.9-8.4
		l1.1-3.6l1.5-4.3h2.4c1.1,0,2.3-0.9,2.7-2l1.3-3.8c0.1-0.4-0.1-0.8-0.4-1c-0.3-0.2-0.6-0.4-0.9-0.8c-0.3-0.6,1.1-3.7,1.7-4.9
		c0.1-0.3,0.5-0.5,0.8-0.5h8.3c0.6,0,1,0.6,0.8,1.1l-2.9,8H44c0.4,0,0.7-0.2,0.8-0.5l1.5-3.8c1-2.7,2.9-4.8,6.1-4.8h2.5
		c0.6,0,1.1,0.6,0.8,1.1l-2,4.6h-1.5l-2.7,7.7c-0.6,1.6-0.8,2.7-0.8,4.3l0.2,1.6l-1.6,6.5c-0.1,0.4-0.5,0.7-0.9,0.7h-7
		c-0.6,0-1-0.5-0.9-1.1l4-12.2L41,43.3z"/>
	<path class="st0" d="M135.5,38.5c-0.2,0.7-1.1,1.1-1.8,0.9c-0.5-0.2-1.1-0.3-1.8-0.3c-4.1,0-8.4,3.3-9.8,7.5
		c-1.4,4.1,1.1,7.5,5.3,7.5c1.1,0,2.1-0.2,3.2-0.6v0.2h5.5c0.6,0,1.2-0.4,1.4-1l6.9-21.3c0.3-0.9-0.4-1.8-1.4-1.8h-4.4L135.5,38.5z
		 M127.9,45.1c0.5-1.5,2.1-2.7,3.4-2.7s2.3,1.2,1.8,2.7s-2.1,2.7-3.4,2.7C128.6,47.6,127.5,46.6,127.9,45.1z"/>
	<path class="st0" d="M120.2,39.1c-4.1,0-8.4,3.3-9.8,7.5c-1.4,4.1,1.1,7.5,5.3,7.5c4.1,0,8.4-3.3,9.8-7.5
		C126.8,42.4,124.5,39.1,120.2,39.1z M121.8,45.1c-0.5,1.5-2.1,2.7-3.4,2.7s-2.3-1.2-1.8-2.7s2.1-2.7,3.4-2.7S122.2,43.7,121.8,45.1
		z"/>
	<path class="st0" d="M109.2,39.1c-4.1,0-8.4,3.3-9.8,7.5c-1.4,4.1,1.1,7.5,5.3,7.5c4.1,0,8.4-3.3,9.8-7.5
		C115.6,42.4,113.3,39.1,109.2,39.1z M110.6,45.1c-0.5,1.5-2.1,2.7-3.4,2.7c-1.4,0-2.3-1.2-1.8-2.7s2.1-2.7,3.4-2.7
		C110.1,42.4,111,43.7,110.6,45.1z"/>
	<path class="st0" d="M84.9,48c1.5-5-1.5-3.6-1.5-3.6l-2.2,8.8c-0.1,0.2-0.3,0.4-0.5,0.4h-4.6h-1c-0.6-0.2-1-0.7-0.8-1.3l5.2-16.1
		H78l1.4-4.3c0.1-0.2,0.3-0.3,0.5-0.3h7.2c0.3,0,0.6,0.3,0.5,0.6l-2.5,8.6c0,0,0.8,0.8,2.3-1c1-1.1,1-2.3,1-2.3h-1l0.6-2.1h5.1
		c0.3,0,0.6,0.3,0.5,0.6c-0.3,0.9-1,3-2.9,5.2c-1.7,1.8-2.5,1.7-2.5,1.7c1,0.4,2.5,0.7,2.7,1.4c0.6,1.3-1.5,6.4-2.1,8.2
		c0,0.2,1.1,0,1.1,0.2c-0.2,0.9-0.2,1.1-0.6,2.3c-0.4,1.3-1.5,2.1-3.1,2.1H83c-0.3,0-0.6-0.3-0.5-0.6L84.9,48z"/>
	<path class="st0" d="M81.2,60.7l0.1-0.5c0.2-1,1.1-1.6,2.1-1.6h1.4c2.6,0.1,4.3-1.1,4.6-2.3l4.2-16c1.9-7,6.1-7.6,7.9-8
		c1.1-0.2,3.2-0.2,4.8,0.7c1.2,0.6,1.4,2.3,0.3,3.2l-1.7,1.5c0-0.2,0-0.4-0.2-0.5c-0.2-0.5-0.8-0.9-1.3-0.9c-1.1,0-2.3,0.9-3.1,2.7
		l-0.2,0.7h2.5l-1.2,2.9h-2.1l-3.8,13.5c-1,3-2.5,5-4.1,6.3C88.3,64.7,83.5,63.9,81.2,60.7L81.2,60.7z"/>
	<path class="st0" d="M66.5,54.3l4-12c0.4-1.3,0-2.3-1.1-2.3s-2.1,1.1-2.5,2.3l-3,9c-0.2,0.5-0.7,0.9-1.3,0.9h-5l0.4-1.1
		c-6.7,3-9.5-1.6-7.6-7.2l2.2-6c0.2-0.5,0.7-0.8,1.2-0.8h3c0.9,0,1.6,0.9,1.2,1.7l-2.6,6.4c-0.4,1.3-0.2,2.3,1,2.3s2.5-0.9,2.9-2.3
		l3.3-8.4c0.2-0.5,0.7-0.8,1.2-0.8l4.5-0.1l-0.2,0.5c7.8-2.5,9.6,0.4,7.3,7.7l-2.7,9.1c-0.2,0.9,0.6,2.1,1.4,2.1h5
		c0.9,0,1.5,0.8,1.3,1.5l-0.9,3.3c-0.1,0.5-0.7,0.9-1.3,0.9h-6.4C67.5,61.2,65.5,58,66.5,54.3z"/>
	<path class="st0" d="M24.7,16.7c0.4-0.2,0.8,0.2,0.6,0.5c-0.8,1.4-2.1,1.8-3.3,2c-1.5,0-2.7-1.4-2.1-3c0.8-2.3,2.9-2.5,3.6-2.5
		c1,0,1.7,0.5,1.9,1.3c0,0.4,0.2,0.5,0,0.9L23,16.7c-0.4,0.2-0.8-0.2-0.6-0.5l1.5-0.5c0.2-0.4-0.2-0.7-0.6-0.7
		c-0.8,0-1.1,0.4-1.3,1.1c-0.4,0.7,0,1.3,0.8,1.4C23.6,17.4,24.7,16.7,24.7,16.7z"/>
	<path class="st0" d="M14.6,12.9L13,18.7h-2.3l1.7-5.7h-1.1c-1,0-1.7-0.9-1.3-1.8l0.2-0.7h6.7c1.1,0,1.9,1.1,1.7,2l-0.2,1.1
		c0.4-0.2,0.4-0.2,0.6-0.2c1-0.2,1.7,0,1.9,0.7c0.4,0.7,0,2.7-0.4,3.8L20.3,19c0,0.4,0.2,0.5,0.4,0.5h0.4l-0.8,2.3h-1.1
		c-0.8,0-1.3-0.7-1.1-1.6l1-4.1c0.2-0.5-0.2-0.9-0.6-0.9s-1,0.4-1,1.1l-0.6,2.5h-2.3l1.3-5.7h-1.3V12.9z"/>
</g>
<g id="Layer_8">
	<path class="st1" d="M157.4,43.3c-0.4,0-0.9,0.3-1,0.6s0.1,0.6,0.6,0.6c0.4,0,0.9-0.3,1-0.6S157.8,43.3,157.4,43.3z"/>
	<path class="st1" d="M154.2,39.8c-1.4,0-3,1.2-3.4,2.7s0.5,2.7,1.8,2.7s3-1.2,3.4-2.7C156.5,40.8,155.6,39.8,154.2,39.8z M154.6,42
		c-0.2,0.4-0.6,0.8-1,0.8s-0.9-0.4-0.7-1c0.2-0.5,0.8-1,1.3-1S154.9,41.3,154.6,42z"/>
	<path class="st1" d="M151.4,40c-0.7,0-1.6-0.2-1.6-0.8V39c0.2-0.8-0.9-0.8-1.1-0.8c-1.1,0.2-2.1,0.8-2.5,1.9
		c-0.5,1,0.2,2.5,1.6,2.5c1.6,0.2,3.4-1,3.4-1c0.7-0.4,1.6,0.4,1.1,1c-1.1,2.5-3.7,3.3-5.9,3.3c-2.7,0-4.8-2.7-4.1-5.6
		c1.4-4.1,5.3-4.4,6.6-4.4c1.8,0,3.2,1,3.7,2.3l0,0L151.4,40z"/>
	<path class="st1" d="M91.9,27.3c-3.6,0-4.3-1.7-2.8-6.6l1.7-5.2c0.2-0.9-0.2-1.8-1.1-1.8c-1,0-1.7,0.7-2.1,1.8l-2.3,7.4
		c-0.1,0.3-0.4,0.5-0.7,0.5h-4.3c-0.5,0-0.9-0.5-0.7-0.9l6-15.7l-1-0.2l1.2-3.3c0.1-0.3,0.4-0.5,0.7-0.5h2.9c1.5,0,2.7,1.4,2.1,2.9
		l-1.7,5c0.6-0.4,1-0.4,1.5-0.5c2.3-0.4,3.8,0,4.4,1.3c0.6,1.4-0.4,5.4-1,7.7l-0.4,2.1c-0.2,1,0.5,2,1.6,2.1l2.6,0.4l-0.3,0.9
		c-0.5,1.4-2.2,2.6-3.8,2.6C94.4,27.3,91.9,27.3,91.9,27.3z"/>
	<path class="st1" d="M66.8,29.2h-5c-0.5,0-0.8-0.4-0.7-0.9l7.2-21.4l-0.8-0.4l0.8-3.3C68.4,3,68.7,2.8,69,2.8h5.8
		c0.5,0,0.8,0.4,0.7,0.8l-8,25C67.4,29,67.1,29.2,66.8,29.2z"/>
	<path class="st1" d="M76.1,5.2c0.1-0.3,0.4-0.6,0.8-0.6h2.4c1.1,0,2.5,0.4,1.9,2.9l-1.4,4l2.2,0.1l-0.4,1.6
		c-0.2,0.7-0.6,1.4-1.9,1.4H79l-2.9,8.1c-0.2,0.7,0.4,1.4,1.1,1.4H78l-1.7,5h-0.8c-3.8,0-5.7-2.7-4.8-5.9l4.8-14L75,9.1L76.1,5.2z"
		/>
	<path class="st1" d="M62.5,11.9h-1.6l-0.4,0.9c-0.8-0.6-1.8-0.9-3.2-0.9c-3.8,0-8.1,3.2-9.3,7.2s1,7.2,5,7.2c0.8,0,1.6-0.2,2.2-0.4
		l0,0h5.2l3.8-11.5C65.1,13.5,64.1,12.1,62.5,11.9z M58.7,17.8c-0.4,1.3-1.8,2.6-3.2,2.6s-2.2-1.1-1.8-2.5c0.4-1.3,1.8-2.5,3.2-2.5
		C58.3,15.3,59.1,16.5,58.7,17.8z"/>
	<path class="st1" d="M43.9,17c0.4-1.1-0.8-2.1-1.8-2.1c-1.8,0-3,1.1-3.6,3s0.4,3.8,2.4,3.8c4.8,0,7.7-3.2,7.7-3.2
		c1-0.6,2.2,0.6,1.8,1.5c-1.8,3.8-5,6.4-11.5,6.6c-4,0.2-7.1-4.2-5.8-8.3c2-6.2,7.7-6.6,9.5-6.6c2.6,0,4.2,0.4,5.2,1.7
		c0.8,1.3,0.6,2.5,0.2,3.8c-0.4,1.1-1.4,1.9-2.6,2.5C45,19.9,44,20.5,43,20.6s-2.4,0.2-3.2-0.2c-1.4-1.5,1-5.3,3.8-3L43.9,17z"/>
	<path class="st1" d="M36.3,12.5c-1.5,1-2.9,2-3.9,4.5s-0.3,5.6-0.3,5.6l-0.9,2.9c-3.6,10.9-10.7,10.9-14.7,9.1
		c-4-1.6-4.4-6.1-3.8-8.1c0.6-2,2.3-4.8,5.4-5c0.8,0,1.9-0.2,2.9,0.4c1.3,0.7,2.3,2.3,0.8,4.7l-0.4,0.2c-0.8,0.9,0,1.4,0.6,1.4
		c1.5,0,1.9-1.8,2.3-3.2l5.4-13.4h-0.6c-2.3,0-3.8-2.1-3.3-4.1l1.5-4.7h14.4l-3,8.4C38.7,11.3,37.8,11.5,36.3,12.5z"/>
	<path class="st1" d="M87.7,28c-1.4-0.6-1.7-2.3-1.3-3.5l0,0c0.1-0.2-0.1-0.4-0.3-0.4h-6.7c-0.1,0-0.3,0.1-0.3,0.2l-0.2,0.4
		c-1.5,3.6,1.5,6.3,5,7.5c0,0,2.9,0.8,7.5,0.8c5.6,0,7.9-0.6,7.9-0.6c1.4-0.4,4.3-1.3,5.2-4l2.6-7.5l1.9-5.5
		c0.1-0.2-0.1-0.4-0.3-0.4h-3.3c-0.2,0-0.3,0.1-0.3,0.2c-0.5,1.2-0.7,3.2-2,3.2s-2.1-1.1-1.7-2.3l0.1-0.2c1.4-1.8,1.6-5.1-0.4-6.2
		c-1.1-0.6-2.6-0.7-4-0.3c-0.2,0.1-0.3,0.2-0.2,0.4l0.4,2.2c1.3,0,0,0.9-1,3.6s0.8,6,3.8,6.6L99,25.4c-0.4,1-1.2,2.4-3.1,2.7
		S89.1,28.6,87.7,28z"/>
	<path class="st1" d="M41,42.3c-0.3,0-0.6,0.2-0.8,0.6l-3.6,9.5c-1.3,4.1-5.4,6.8-9.8,6.8h-2.6c-0.6,0-2.5-0.6-2.3-1.1l2.9-8.4
		l1.1-3.6l1.5-4.3h2.4c1.1,0,2.3-0.9,2.7-2l1.3-3.8c0.1-0.4-0.1-0.8-0.4-1c-0.3-0.2-0.6-0.4-0.9-0.8c-0.3-0.6,1.1-3.7,1.7-4.9
		c0.1-0.3,0.5-0.5,0.8-0.5h8.3c0.6,0,1,0.6,0.8,1.1l-2.9,8H44c0.4,0,0.7-0.2,0.8-0.5l1.5-3.8c1-2.7,2.9-4.8,6.1-4.8h2.5
		c0.6,0,1.1,0.6,0.8,1.1l-2,4.6h-1.5l-2.7,7.7C49,44,48.8,45,48.8,46.7l0.2,1.6l-1.6,6.5c-0.1,0.4-0.5,0.7-0.9,0.7h-7
		c-0.6,0-1-0.5-0.9-1.1l4-12.2L41,42.3z"/>
	<path class="st1" d="M135.5,37.5c-0.2,0.7-1.1,1.1-1.8,0.9c-0.5-0.2-1.1-0.3-1.8-0.3c-4.1,0-8.4,3.3-9.8,7.5
		c-1.4,4.1,1.1,7.5,5.3,7.5c1.1,0,2.1-0.2,3.2-0.6v0.2h5.5c0.6,0,1.2-0.4,1.4-1l6.9-21.3c0.3-0.9-0.4-1.8-1.4-1.8h-4.4L135.5,37.5z
		 M127.9,44.1c0.5-1.5,2.1-2.7,3.4-2.7s2.3,1.2,1.8,2.7s-2.1,2.7-3.4,2.7C128.6,46.6,127.5,45.6,127.9,44.1z"/>
	<path class="st1" d="M120.2,38.1c-4.1,0-8.4,3.3-9.8,7.5c-1.4,4.1,1.1,7.5,5.3,7.5c4.1,0,8.4-3.3,9.8-7.5
		C126.8,41.4,124.5,38.1,120.2,38.1z M121.8,44.1c-0.5,1.5-2.1,2.7-3.4,2.7s-2.3-1.2-1.8-2.7s2.1-2.7,3.4-2.7S122.2,42.7,121.8,44.1
		z"/>
	<path class="st1" d="M109.2,38.1c-4.1,0-8.4,3.3-9.8,7.5c-1.4,4.1,1.1,7.5,5.3,7.5c4.1,0,8.4-3.3,9.8-7.5
		C115.6,41.4,113.3,38.1,109.2,38.1z M110.6,44.1c-0.5,1.5-2.1,2.7-3.4,2.7c-1.4,0-2.3-1.2-1.8-2.7s2.1-2.7,3.4-2.7
		C110.1,41.4,111,42.7,110.6,44.1z"/>
	<path class="st1" d="M84.9,47c1.5-5-1.5-3.6-1.5-3.6l-2.2,8.8c-0.1,0.2-0.3,0.4-0.5,0.4h-4.6h-1c-0.6-0.2-1-0.7-0.8-1.3l5.2-16.1
		H78l1.4-4.3c0.1-0.2,0.3-0.3,0.5-0.3h7.2c0.3,0,0.6,0.3,0.5,0.6l-2.5,8.6c0,0,0.8,0.8,2.3-1c1-1.1,1-2.3,1-2.3h-1l0.6-2.1h5.1
		c0.3,0,0.6,0.3,0.5,0.6c-0.3,0.9-1,3-2.9,5.2c-1.7,1.8-2.5,1.7-2.5,1.7c1,0.4,2.5,0.7,2.7,1.4c0.6,1.3-1.5,6.4-2.1,8.2
		c0,0.2,1.1,0,1.1,0.2c-0.2,0.9-0.2,1.1-0.6,2.3c-0.4,1.3-1.5,2.1-3.1,2.1H83c-0.3,0-0.6-0.3-0.5-0.6L84.9,47z"/>
	<path class="st1" d="M81.2,59.7l0.1-0.5c0.2-1,1.1-1.6,2.1-1.6h1.4c2.6,0.1,4.3-1.1,4.6-2.3l4.2-16c1.9-7,6.1-7.6,7.9-8
		c1.1-0.2,3.2-0.2,4.8,0.7c1.2,0.6,1.4,2.3,0.3,3.2l-1.7,1.5c0-0.2,0-0.4-0.2-0.5c-0.2-0.5-0.8-0.9-1.3-0.9c-1.1,0-2.3,0.9-3.1,2.7
		l-0.2,0.7h2.5l-1.2,2.9h-2.1l-3.8,13.5c-1,3-2.5,5-4.1,6.3C88.3,63.7,83.5,62.9,81.2,59.7L81.2,59.7z"/>
	<path class="st1" d="M66.5,53.3l4-12c0.4-1.3,0-2.3-1.1-2.3s-2.1,1.1-2.5,2.3l-3,9c-0.2,0.5-0.7,0.9-1.3,0.9h-5l0.4-1.1
		c-6.7,3-9.5-1.6-7.6-7.2l2.2-6c0.2-0.5,0.7-0.8,1.2-0.8h3c0.9,0,1.6,0.9,1.2,1.7l-2.6,6.4c-0.4,1.3-0.2,2.3,1,2.3s2.5-0.9,2.9-2.3
		l3.3-8.4c0.2-0.5,0.7-0.8,1.2-0.8l4.5-0.1l-0.2,0.5c7.8-2.5,9.6,0.4,7.3,7.7l-2.7,9.1c-0.2,0.9,0.6,2.1,1.4,2.1h5
		c0.9,0,1.5,0.8,1.3,1.5l-0.9,3.3c-0.1,0.5-0.7,0.9-1.3,0.9h-6.4C67.5,60.2,65.5,57,66.5,53.3z"/>
	<path class="st1" d="M24.7,15.7c0.4-0.2,0.8,0.2,0.6,0.5c-0.8,1.4-2.1,1.8-3.3,2c-1.5,0-2.7-1.4-2.1-3c0.8-2.3,2.9-2.5,3.6-2.5
		c1,0,1.7,0.5,1.9,1.3c0,0.4,0.2,0.5,0,0.9L23,15.7c-0.4,0.2-0.8-0.2-0.6-0.5l1.5-0.5c0.2-0.4-0.2-0.7-0.6-0.7
		c-0.8,0-1.1,0.4-1.3,1.1c-0.4,0.7,0,1.3,0.8,1.4C23.6,16.4,24.7,15.7,24.7,15.7z"/>
	<path class="st1" d="M14.6,11.9L13,17.7h-2.3l1.7-5.7h-1.1c-1,0-1.7-0.9-1.3-1.8l0.2-0.7h6.7c1.1,0,1.9,1.1,1.7,2l-0.2,1.1
		c0.4-0.2,0.4-0.2,0.6-0.2c1-0.2,1.7,0,1.9,0.7c0.4,0.7,0,2.7-0.4,3.8L20.3,18c0,0.4,0.2,0.5,0.4,0.5h0.4l-0.8,2.3h-1.1
		c-0.8,0-1.3-0.7-1.1-1.6l1-4.1c0.2-0.5-0.2-0.9-0.6-0.9s-1,0.4-1,1.1l-0.6,2.5h-2.3l1.3-5.7h-1.3V11.9z"/>
</g>
<g id="Yeller">
	<g id="Co.">
		
			<radialGradient id="SVGID_1_" cx="129.8147" cy="27.7117" r="0.7901" gradientTransform="matrix(1.08 0 0 -1.0118 17.3496 71.7271)" gradientUnits="userSpaceOnUse">
			<stop  offset="0.2581" style="stop-color:#FFEFAA"/>
			<stop  offset="0.5699" style="stop-color:#FFE52A"/>
			<stop  offset="0.9194" style="stop-color:#E99D00"/>
		</radialGradient>
		<path class="st2" d="M157.8,42.9c-0.4,0-0.9,0.4-1,0.8c-0.1,0.4,0.1,0.8,0.6,0.8s0.9-0.4,1-0.8C158.5,43.2,158.2,42.9,157.8,42.9z
			"/>
		
			<radialGradient id="SVGID_2_" cx="126.129" cy="29.2942" r="2.6035" gradientTransform="matrix(1.08 0 0 -1.0118 17.3496 71.7271)" gradientUnits="userSpaceOnUse">
			<stop  offset="0.2581" style="stop-color:#FFEFAA"/>
			<stop  offset="0.5699" style="stop-color:#FFE52A"/>
			<stop  offset="0.9194" style="stop-color:#E99D00"/>
		</radialGradient>
		<path class="st3" d="M154.4,39.4c-1.4,0-3,1.2-3.4,2.7c-0.5,1.5,0.5,2.7,1.8,2.7s3-1.2,3.4-2.7C156.7,40.4,155.7,39.4,154.4,39.4z
			 M154.7,41.6c-0.2,0.4-0.6,0.8-1,0.8s-0.9-0.4-0.7-1c0.2-0.5,0.8-1,1.3-1S155.1,40.9,154.7,41.6z"/>
		
			<radialGradient id="SVGID_3_" cx="120.571" cy="30.9338" r="4.8687" gradientTransform="matrix(1.08 0 0 -1.0118 17.3496 71.7271)" gradientUnits="userSpaceOnUse">
			<stop  offset="0.2581" style="stop-color:#FFEFAA"/>
			<stop  offset="0.5699" style="stop-color:#FFE52A"/>
			<stop  offset="0.9194" style="stop-color:#E99D00"/>
		</radialGradient>
		<path class="st4" d="M151.6,39.6c-0.7,0-1.6-0.2-1.6-0.8v-0.2c0.2-0.8-0.9-0.8-1.1-0.8c-1.1,0.2-2.1,0.8-2.5,1.9s0.2,2.5,1.6,2.5
			c1.6,0.2,3.4-1,3.4-1c0.7-0.4,1.6,0.4,1.1,1c-1.1,2.5-3.7,3.3-5.9,3.3c-2.7,0-4.8-2.7-4.1-5.6c1.4-4.1,5.3-4.4,6.6-4.4
			c1.8,0,3.2,1,3.7,2.3l0,0L151.6,39.6z"/>
	</g>
	<g id="Jealthy">
		
			<radialGradient id="SVGID_4_" cx="66.5129" cy="56.3688" r="10.5668" gradientTransform="matrix(1.08 0 0 -1.0118 17.3496 71.7271)" gradientUnits="userSpaceOnUse">
			<stop  offset="0.2581" style="stop-color:#FFEFAA"/>
			<stop  offset="0.5699" style="stop-color:#FFE52A"/>
			<stop  offset="0.9194" style="stop-color:#E99D00"/>
		</radialGradient>
		<path class="st5" d="M92.1,26.9c-3.6,0-4.3-1.7-2.8-6.6l1.7-5.2c0.2-0.9-0.2-1.8-1.1-1.8c-1,0-1.7,0.7-2.1,1.8l-2.3,7.4
			c-0.1,0.3-0.4,0.5-0.7,0.5h-4.3c-0.5,0-0.9-0.5-0.7-0.9l6-15.7l-1-0.2L86,2.9c0.1-0.3,0.4-0.5,0.7-0.5h2.9c1.5,0,2.7,1.4,2.1,2.9
			l-1.7,5c0.6-0.4,1-0.4,1.5-0.5c2.3-0.4,3.8,0,4.4,1.3c0.6,1.4-0.4,5.4-1,7.7l-0.4,2.1c-0.2,1,0.5,2,1.6,2.1l2.6,0.4l-0.3,0.9
			c-0.5,1.4-2.2,2.6-3.8,2.6C94.6,26.9,92.1,26.9,92.1,26.9z"/>
		
			<radialGradient id="SVGID_5_" cx="47.3176" cy="55.4558" r="10.3454" gradientTransform="matrix(1.08 0 0 -1.0118 17.3496 71.7271)" gradientUnits="userSpaceOnUse">
			<stop  offset="0.2581" style="stop-color:#FFEFAA"/>
			<stop  offset="0.5699" style="stop-color:#FFE52A"/>
			<stop  offset="0.9194" style="stop-color:#E99D00"/>
		</radialGradient>
		<path class="st6" d="M67,28.8h-5c-0.5,0-0.8-0.4-0.7-0.9l7.2-21.4l-0.8-0.4L68.5,3c0.1-0.3,0.4-0.5,0.7-0.5H75
			c0.5,0,0.8,0.4,0.7,0.8l-8,25C67.6,28.6,67.3,28.8,67,28.8z"/>
		
			<radialGradient id="SVGID_6_" cx="54.7321" cy="54.5706" r="9.3695" gradientTransform="matrix(1.08 0 0 -1.0118 17.3496 71.7271)" gradientUnits="userSpaceOnUse">
			<stop  offset="0.2581" style="stop-color:#FFEFAA"/>
			<stop  offset="0.5699" style="stop-color:#FFE52A"/>
			<stop  offset="0.9194" style="stop-color:#E99D00"/>
		</radialGradient>
		<path class="st7" d="M76.3,4.8c0.1-0.3,0.4-0.6,0.8-0.6h2.4c1.1,0,2.5,0.4,1.9,2.9l-1.4,4l2.2,0.1l-0.4,1.6
			c-0.2,0.7-0.6,1.4-1.9,1.4h-0.8l-2.9,8.1c-0.2,0.7,0.4,1.4,1.1,1.4h0.8l-1.7,5h-0.8c-3.8,0-5.7-2.7-4.8-5.9l4.8-14L75,8.6
			L76.3,4.8z"/>
		
			<radialGradient id="SVGID_7_" cx="36.0646" cy="52.3604" r="7.4701" gradientTransform="matrix(1.08 0 0 -1.0118 17.3496 71.7271)" gradientUnits="userSpaceOnUse">
			<stop  offset="0.2581" style="stop-color:#FFEFAA"/>
			<stop  offset="0.5699" style="stop-color:#FFE52A"/>
			<stop  offset="0.9194" style="stop-color:#E99D00"/>
		</radialGradient>
		<path class="st8" d="M62.7,11.6h-1.6l-0.4,0.9c-0.8-0.6-1.8-0.9-3.2-0.9c-3.8,0-8.1,3.2-9.3,7.2s1,7.2,5,7.2
			c0.8,0,1.6-0.2,2.2-0.4l0,0h5.2L64.5,14C65.3,13.1,64.3,11.8,62.7,11.6z M58.8,17.4C58.4,18.7,57,20,55.6,20s-2.2-1.1-1.8-2.5
			c0.4-1.3,1.8-2.5,3.2-2.5S59.2,16.1,58.8,17.4z"/>
		
			<radialGradient id="SVGID_8_" cx="22.6556" cy="52.2572" r="7.7969" gradientTransform="matrix(1.08 0 0 -1.0118 17.3496 71.7271)" gradientUnits="userSpaceOnUse">
			<stop  offset="0.2581" style="stop-color:#FFEFAA"/>
			<stop  offset="0.5699" style="stop-color:#FFE52A"/>
			<stop  offset="0.9194" style="stop-color:#E99D00"/>
		</radialGradient>
		<path class="st9" d="M44.1,16.7c0.4-1.1-0.8-2.1-1.8-2.1c-1.8,0-3,1.1-3.6,3s0.4,3.8,2.4,3.8c4.8,0,7.7-3.2,7.7-3.2
			c1-0.6,2.2,0.6,1.8,1.5c-1.8,3.8-5,6.4-11.5,6.6c-4,0.2-7.1-4.2-5.8-8.3c2-6.2,7.7-6.6,9.5-6.6c2.6,0,4.2,0.4,5.2,1.7
			c0.8,1.3,0.6,2.5,0.2,3.8c-0.4,1.1-1.4,1.9-2.6,2.5c-0.4,0.2-1.4,0.8-2.4,0.9s-2.4,0.2-3.2-0.2c-1.4-1.5,1-5.3,3.8-3L44.1,16.7z"
			/>
		
			<radialGradient id="SVGID_9_" cx="9.1429" cy="52.2747" r="14.9142" gradientTransform="matrix(1.08 0 0 -1.0118 17.3496 71.7271)" gradientUnits="userSpaceOnUse">
			<stop  offset="0.2581" style="stop-color:#FFEFAA"/>
			<stop  offset="0.5699" style="stop-color:#FFE52A"/>
			<stop  offset="0.9194" style="stop-color:#E99D00"/>
		</radialGradient>
		<path class="st10" d="M36.5,12.1c-1.5,1-2.9,2-3.9,4.5s-0.3,5.6-0.3,5.6l-0.9,2.9C27.8,36,20.7,36,16.7,34.2
			c-4-1.6-4.4-6.1-3.8-8.1s2.3-4.8,5.4-5c0.8,0,1.9-0.2,2.9,0.4c1.3,0.7,2.3,2.3,0.8,4.7l-0.4,0.2c-0.8,0.9,0,1.4,0.6,1.4
			c1.5,0,1.9-1.8,2.3-3.2l5.4-13.4h-0.6c-2.3,0-3.8-2.1-3.3-4.1l1.5-4.7h14.4l-3,8.4C38.8,10.9,38,11.1,36.5,12.1z"/>
		
			<radialGradient id="SVGID_10_" cx="70.8479" cy="50.3158" r="12.9937" gradientTransform="matrix(1.08 0 0 -1.0118 17.3496 71.7271)" gradientUnits="userSpaceOnUse">
			<stop  offset="0.2581" style="stop-color:#FFEFAA"/>
			<stop  offset="0.5699" style="stop-color:#FFE52A"/>
			<stop  offset="0.9194" style="stop-color:#E99D00"/>
		</radialGradient>
		<path class="st11" d="M87.9,27.7c-1.4-0.6-1.7-2.3-1.3-3.5l0,0c0.1-0.2-0.1-0.4-0.3-0.4h-6.7c-0.1,0-0.3,0.1-0.3,0.2L79,24.4
			c-1.5,3.6,1.5,6.3,5,7.5c0,0,2.9,0.8,7.5,0.8c5.6,0,7.9-0.6,7.9-0.6c1.4-0.4,4.3-1.3,5.2-4l2.6-7.5l1.9-5.5
			c0.1-0.2-0.1-0.4-0.3-0.4h-3.3c-0.2,0-0.3,0.1-0.3,0.2c-0.5,1.2-0.7,3.2-2,3.2s-2.1-1.1-1.7-2.3l0.1-0.2c1.4-1.8,1.6-5.1-0.4-6.2
			c-1.1-0.6-2.6-0.7-4-0.3C97,9.2,96.9,9.4,97,9.5l0.4,2.2c1.3,0,0,0.9-1,3.6s0.8,6,3.8,6.6l-1.1,3.2c-0.4,1-1.2,2.4-3.1,2.7
			C94,28.2,89.3,28.2,87.9,27.7z"/>
	</g>
	<g id="Hunkfood">
		
			<radialGradient id="SVGID_11_" cx="20.1043" cy="27.7117" r="15.3206" gradientTransform="matrix(1.08 0 0 -1.0118 17.3496 71.7271)" gradientUnits="userSpaceOnUse">
			<stop  offset="0.2581" style="stop-color:#FFEFAA"/>
			<stop  offset="0.5699" style="stop-color:#FFE52A"/>
			<stop  offset="0.9194" style="stop-color:#E99D00"/>
		</radialGradient>
		<path class="st12" d="M41.2,41.9c-0.3,0-0.6,0.2-0.8,0.6L36.8,52c-1.3,4.1-5.4,6.8-9.8,6.8h-2.6c-0.6,0-2.5-0.6-2.3-1.1l2.9-8.4
			l1.1-3.6l1.5-4.3H30c1.1,0,2.3-0.9,2.7-2l1.3-3.8c0.1-0.4-0.1-0.8-0.4-1c-0.3-0.2-0.6-0.4-0.9-0.8c-0.3-0.6,1.1-3.7,1.7-4.9
			c0.1-0.3,0.5-0.5,0.8-0.5h8.3c0.6,0,1,0.6,0.8,1.1l-2.9,8H44c0.4,0,0.7-0.2,0.8-0.5l1.5-3.8c1-2.7,2.9-4.8,6.1-4.8h2.5
			c0.6,0,1.1,0.6,0.8,1.1l-2,4.6h-1.5L49.7,42c-0.6,1.6-0.8,2.7-0.8,4.3l0.2,1.6l-1.6,6.5c-0.1,0.4-0.5,0.7-0.9,0.7h-7
			c-0.6,0-1-0.5-0.9-1.1l4-12.2L41.2,41.9z"/>
		
			<radialGradient id="SVGID_12_" cx="107.224" cy="30.9123" r="11.3408" gradientTransform="matrix(1.08 0 0 -1.0118 17.3496 71.7271)" gradientUnits="userSpaceOnUse">
			<stop  offset="0.2581" style="stop-color:#FFEFAA"/>
			<stop  offset="0.5699" style="stop-color:#FFE52A"/>
			<stop  offset="0.9194" style="stop-color:#E99D00"/>
		</radialGradient>
		<path class="st13" d="M135.7,37.1c-0.2,0.7-1.1,1.1-1.8,0.9c-0.5-0.2-1.1-0.3-1.8-0.3c-4.1,0-8.4,3.3-9.8,7.5
			c-1.4,4.1,1.1,7.5,5.3,7.5c1.1,0,2.1-0.2,3.2-0.6v0.2h5.5c0.6,0,1.2-0.4,1.4-1l6.9-21.3c0.3-0.9-0.4-1.8-1.4-1.8h-4.4L135.7,37.1z
			 M128.1,43.7c0.5-1.5,2.1-2.7,3.4-2.7s2.3,1.2,1.8,2.7s-2.1,2.7-3.4,2.7C128.8,46.2,127.7,45.2,128.1,43.7z"/>
		
			<radialGradient id="SVGID_13_" cx="93.2648" cy="26.2177" r="7.3573" gradientTransform="matrix(1.08 0 0 -1.0118 17.3496 71.7271)" gradientUnits="userSpaceOnUse">
			<stop  offset="0.2581" style="stop-color:#FFEFAA"/>
			<stop  offset="0.5699" style="stop-color:#FFE52A"/>
			<stop  offset="0.9194" style="stop-color:#E99D00"/>
		</radialGradient>
		<path class="st14" d="M120.4,37.7c-4.1,0-8.4,3.3-9.8,7.5c-1.4,4.1,1.1,7.5,5.3,7.5c4.1,0,8.4-3.3,9.8-7.5
			C127,41,124.7,37.7,120.4,37.7z M121.9,43.7c-0.5,1.5-2.1,2.7-3.4,2.7s-2.3-1.2-1.8-2.7s2.1-2.7,3.4-2.7S122.4,42.3,121.9,43.7z"
			/>
		
			<radialGradient id="SVGID_14_" cx="83.0696" cy="26.2177" r="7.3335" gradientTransform="matrix(1.08 0 0 -1.0118 17.3496 71.7271)" gradientUnits="userSpaceOnUse">
			<stop  offset="0.2581" style="stop-color:#FFEFAA"/>
			<stop  offset="0.5699" style="stop-color:#FFE52A"/>
			<stop  offset="0.9194" style="stop-color:#E99D00"/>
		</radialGradient>
		<path class="st15" d="M109.4,37.7c-4.1,0-8.4,3.3-9.8,7.5c-1.4,4.1,1.1,7.5,5.3,7.5c4.1,0,8.4-3.3,9.8-7.5
			C115.8,41,113.5,37.7,109.4,37.7z M110.8,43.7c-0.5,1.5-2.1,2.7-3.4,2.7c-1.4,0-2.3-1.2-1.8-2.7s2.1-2.7,3.4-2.7
			S111.2,42.3,110.8,43.7z"/>
		
			<radialGradient id="SVGID_15_" cx="61.874" cy="28.5202" r="10.8924" gradientTransform="matrix(1.08 0 0 -1.0118 17.3496 71.7271)" gradientUnits="userSpaceOnUse">
			<stop  offset="0.2581" style="stop-color:#FFEFAA"/>
			<stop  offset="0.5699" style="stop-color:#FFE52A"/>
			<stop  offset="0.9194" style="stop-color:#E99D00"/>
		</radialGradient>
		<path class="st16" d="M85.1,46.6c1.5-5-1.5-3.6-1.5-3.6l-2.2,8.8c-0.1,0.2-0.3,0.4-0.5,0.4h-4.6h-1c-0.6-0.2-1-0.7-0.8-1.3
			l5.2-16.1h-1.5l1.4-4.3c0.1-0.2,0.3-0.3,0.5-0.3h7.2c0.3,0,0.6,0.3,0.5,0.6l-2.5,8.6c0,0,0.8,0.8,2.3-1c1-1.1,1-2.3,1-2.3h-1
			l0.6-2.1h5.1c0.3,0,0.6,0.3,0.5,0.6c-0.3,0.9-1,3-2.9,5.2c-1.7,1.8-2.5,1.7-2.5,1.7c1,0.4,2.5,0.7,2.7,1.4
			c0.6,1.3-1.5,6.4-2.1,8.2c0,0.2,1.1,0,1.1,0.2c-0.2,0.9-0.2,1.1-0.6,2.3c-0.4,1.3-1.5,2.1-3.1,2.1h-3.2c-0.3,0-0.6-0.3-0.5-0.6
			L85.1,46.6z"/>
		
			<radialGradient id="SVGID_16_" cx="71.3534" cy="24.926" r="13.9753" gradientTransform="matrix(1.08 0 0 -1.0118 17.3496 71.7271)" gradientUnits="userSpaceOnUse">
			<stop  offset="0.2581" style="stop-color:#FFEFAA"/>
			<stop  offset="0.5699" style="stop-color:#FFE52A"/>
			<stop  offset="0.9194" style="stop-color:#E99D00"/>
		</radialGradient>
		<path class="st17" d="M81.3,59.3l0.1-0.5c0.2-1,1.1-1.6,2.1-1.6H85c2.6,0.1,4.3-1.1,4.6-2.3l4.2-16c1.9-7,6.1-7.6,7.9-8
			c1.1-0.2,3.2-0.2,4.8,0.7c1.2,0.6,1.4,2.3,0.3,3.2l-1.7,1.5c0-0.2,0-0.4-0.2-0.5c-0.2-0.5-0.8-0.9-1.3-0.9c-1.1,0-2.3,0.9-3.1,2.7
			l-0.2,0.7h2.5l-1.2,2.9h-2.1l-3.8,13.5c-1,3-2.5,5-4.1,6.3C88.5,63.3,83.7,62.5,81.3,59.3L81.3,59.3z"/>
		
			<radialGradient id="SVGID_17_" cx="44.4706" cy="24.5731" r="13.4163" gradientTransform="matrix(1.08 0 0 -1.0118 17.3496 71.7271)" gradientUnits="userSpaceOnUse">
			<stop  offset="0.2581" style="stop-color:#FFEFAA"/>
			<stop  offset="0.5699" style="stop-color:#FFE52A"/>
			<stop  offset="0.9194" style="stop-color:#E99D00"/>
		</radialGradient>
		<path class="st18" d="M66.7,52.9l4-12c0.4-1.3,0-2.3-1.1-2.3s-2.1,1.1-2.5,2.3l-3,9c-0.2,0.5-0.7,0.9-1.3,0.9h-5l0.4-1.1
			c-6.7,3-9.5-1.6-7.6-7.2l2.2-6c0.2-0.5,0.7-0.8,1.2-0.8h3c0.9,0,1.6,0.9,1.2,1.7l-2.6,6.4c-0.4,1.3-0.2,2.3,1,2.3s2.5-0.9,2.9-2.3
			l3.3-8.4c0.2-0.5,0.7-0.8,1.2-0.8l4.5-0.1L68.4,35c7.8-2.5,9.6,0.4,7.3,7.7L73,51.8c-0.2,0.9,0.6,2.1,1.4,2.1h5
			c0.9,0,1.5,0.8,1.3,1.5l-0.9,3.3c-0.1,0.5-0.7,0.9-1.3,0.9h-6.4C67.7,59.8,65.7,56.6,66.7,52.9z"/>
	</g>
	<g id="The">
		
			<radialGradient id="SVGID_18_" cx="5.0864" cy="56.0161" r="2.7098" gradientTransform="matrix(1.08 0 0 -1.0118 17.3496 71.7271)" gradientUnits="userSpaceOnUse">
			<stop  offset="0.2581" style="stop-color:#FFEFAA"/>
			<stop  offset="0.5699" style="stop-color:#FFE52A"/>
			<stop  offset="0.9194" style="stop-color:#E99D00"/>
		</radialGradient>
		<path class="st19" d="M24.9,15.3c0.4-0.2,0.8,0.2,0.6,0.5c-0.8,1.4-2.1,1.8-3.3,2c-1.5,0-2.7-1.4-2.1-3c0.8-2.3,2.9-2.5,3.6-2.5
			c1,0,1.7,0.5,1.9,1.3c0,0.4,0.2,0.5,0,0.9l-2.5,0.9c-0.4,0.2-0.8-0.2-0.6-0.5l1.5-0.5c0.2-0.4-0.2-0.7-0.6-0.7
			c-0.8,0-1.1,0.4-1.3,1.1c-0.4,0.7,0,1.3,0.8,1.4C23.7,16,24.9,15.3,24.9,15.3z"/>
		
			<radialGradient id="SVGID_19_" cx="-1.5696" cy="56.3688" r="5.3864" gradientTransform="matrix(1.08 0 0 -1.0118 17.3496 71.7271)" gradientUnits="userSpaceOnUse">
			<stop  offset="0.2581" style="stop-color:#FFEFAA"/>
			<stop  offset="0.5699" style="stop-color:#FFE52A"/>
			<stop  offset="0.9194" style="stop-color:#E99D00"/>
		</radialGradient>
		<path class="st20" d="M14.7,11.6l-1.5,5.7h-2.3l1.7-5.7h-1.1c-1,0-1.7-0.9-1.3-1.8L10.4,9H17c1.1,0,1.9,1.1,1.7,2l-0.2,1.1
			c0.4-0.2,0.4-0.2,0.6-0.2c1-0.2,1.7,0,1.9,0.7c0.4,0.7,0,2.7-0.4,3.8l-0.2,1.1c0,0.4,0.2,0.5,0.4,0.5h0.4l-0.8,2.3h-1.1
			c-0.8,0-1.3-0.7-1.1-1.6l1-4.1c0.2-0.5-0.2-0.9-0.6-0.9s-1,0.4-1,1.1L17,17.3h-2.3l1.3-5.7C16,11.6,14.7,11.6,14.7,11.6z"/>
	</g>
</g>
</svg>
